<svg width="40" height="40" viewBox="0 0 40 40" fill="none" xmlns="http://www.w3.org/2000/svg">
<g clip-path="url(#clip0_184_843)">
<g filter="url(#filter0_b_184_843)">
<path d="M10.3995 19.6C10.3995 14.9566 10.3883 10.302 10.3995 5.65869C10.3995 3.74738 11.3664 2.35325 13.0641 1.80235C13.4689 1.66743 13.9073 1.61122 14.3346 1.61122C18.2584 1.59997 22.1822 1.59997 26.0947 1.61122C28.377 1.62246 30.041 3.27517 30.041 5.54626C30.0522 14.9229 30.0522 24.2883 30.041 33.6649C30.041 35.936 28.377 37.6 26.106 37.6C22.2271 37.6112 18.3483 37.6112 14.4695 37.6C12.041 37.6 10.422 36.0035 10.4108 33.5525C10.3883 28.8979 10.3995 24.2546 10.3995 19.6ZM20.2259 4.87168C19.4614 4.87168 18.6968 4.87168 17.9211 4.87168C17.314 4.88292 16.9767 5.16399 16.9654 5.65869C16.9542 6.16462 17.269 6.51315 17.8536 6.51315C19.4276 6.53564 20.9904 6.53564 22.5644 6.51315C23.1266 6.50191 23.5088 6.11965 23.4864 5.65869C23.4639 5.18648 23.0928 4.87168 22.5195 4.87168C21.7549 4.87168 20.9904 4.87168 20.2259 4.87168ZM20.2259 31.079C19.304 31.079 18.5732 31.8098 18.5844 32.7093C18.5957 33.6087 19.3489 34.3395 20.2484 34.3283C21.1253 34.317 21.8336 33.5975 21.8336 32.7093C21.8449 31.7761 21.1478 31.079 20.2259 31.079Z" fill="#E60000"/>
<path d="M17.9211 4.37159V4.37168H17.9256H17.9302H17.9347H17.9393H17.9438H17.9483H17.9529H17.9574H17.962H17.9665H17.9711H17.9756H17.9801H17.9847H17.9892H17.9938H17.9983H18.0029H18.0074H18.0119H18.0165H18.021H18.0256H18.0301H18.0346H18.0392H18.0437H18.0483H18.0528H18.0573H18.0619H18.0664H18.0709H18.0755H18.08H18.0846H18.0891H18.0936H18.0982H18.1027H18.1072H18.1118H18.1163H18.1208H18.1254H18.1299H18.1344H18.139H18.1435H18.148H18.1526H18.1571H18.1616H18.1662H18.1707H18.1752H18.1798H18.1843H18.1888H18.1934H18.1979H18.2024H18.207H18.2115H18.216H18.2205H18.2251H18.2296H18.2341H18.2387H18.2432H18.2477H18.2522H18.2568H18.2613H18.2658H18.2704H18.2749H18.2794H18.2839H18.2885H18.293H18.2975H18.302H18.3066H18.3111H18.3156H18.3201H18.3247H18.3292H18.3337H18.3382H18.3428H18.3473H18.3518H18.3563H18.3609H18.3654H18.3699H18.3744H18.3789H18.3835H18.388H18.3925H18.397H18.4016H18.4061H18.4106H18.4151H18.4196H18.4242H18.4287H18.4332H18.4377H18.4422H18.4468H18.4513H18.4558H18.4603H18.4648H18.4693H18.4739H18.4784H18.4829H18.4874H18.4919H18.4965H18.501H18.5055H18.51H18.5145H18.519H18.5236H18.5281H18.5326H18.5371H18.5416H18.5461H18.5506H18.5552H18.5597H18.5642H18.5687H18.5732H18.5777H18.5822H18.5868H18.5913H18.5958H18.6003H18.6048H18.6093H18.6138H18.6183H18.6229H18.6274H18.6319H18.6364H18.6409H18.6454H18.6499H18.6544H18.6589H18.6634H18.668H18.6725H18.677H18.6815H18.686H18.6905H18.695H18.6995H18.704H18.7085H18.713H18.7176H18.7221H18.7266H18.7311H18.7356H18.7401H18.7446H18.7491H18.7536H18.7581H18.7626H18.7671H18.7716H18.7761H18.7807H18.7852H18.7897H18.7942H18.7987H18.8032H18.8077H18.8122H18.8167H18.8212H18.8257H18.8302H18.8347H18.8392H18.8437H18.8482H18.8527H18.8572H18.8617H18.8662H18.8707H18.8752H18.8797H18.8842H18.8887H18.8932H18.8977H18.9022H18.9067H18.9113H18.9158H18.9203H18.9248H18.9293H18.9338H18.9383H18.9428H18.9473H18.9518H18.9563H18.9608H18.9653H18.9698H18.9743H18.9788H18.9833H18.9878H18.9922H18.9967H19.0012H19.0057H19.0102H19.0147H19.0192H19.0237H19.0282H19.0327H19.0372H19.0417H19.0462H19.0507H19.0552H19.0597H19.0642H19.0687H19.0732H19.0777H19.0822H19.0867H19.0912H19.0957H19.1002H19.1047H19.1092H19.1137H19.1182H19.1227H19.1271H19.1316H19.1361H19.1406H19.1451H19.1496H19.1541H19.1586H19.1631H19.1676H19.1721H19.1766H19.1811H19.1856H19.1901H19.1946H19.199H19.2035H19.208H19.2125H19.217H19.2215H19.226H19.2305H19.235H19.2395H19.244H19.2485H19.253H19.2574H19.2619H19.2664H19.2709H19.2754H19.2799H19.2844H19.2889H19.2934H19.2979H19.3024H19.3068H19.3113H19.3158H19.3203H19.3248H19.3293H19.3338H19.3383H19.3428H19.3473H19.3517H19.3562H19.3607H19.3652H19.3697H19.3742H19.3787H19.3832H19.3877H19.3921H19.3966H19.4011H19.4056H19.4101H19.4146H19.4191H19.4236H19.428H19.4325H19.437H19.4415H19.446H19.4505H19.455H19.4595H19.4639H19.4684H19.4729H19.4774H19.4819H19.4864H19.4909H19.4953H19.4998H19.5043H19.5088H19.5133H19.5178H19.5223H19.5267H19.5312H19.5357H19.5402H19.5447H19.5492H19.5537H19.5581H19.5626H19.5671H19.5716H19.5761H19.5806H19.5851H19.5895H19.594H19.5985H19.603H19.6075H19.612H19.6164H19.6209H19.6254H19.6299H19.6344H19.6389H19.6434H19.6478H19.6523H19.6568H19.6613H19.6658H19.6703H19.6747H19.6792H19.6837H19.6882H19.6927H19.6972H19.7016H19.7061H19.7106H19.7151H19.7196H19.7241H19.7285H19.733H19.7375H19.742H19.7465H19.7509H19.7554H19.7599H19.7644H19.7689H19.7734H19.7778H19.7823H19.7868H19.7913H19.7958H19.8003H19.8047H19.8092H19.8137H19.8182H19.8227H19.8271H19.8316H19.8361H19.8406H19.8451H19.8495H19.854H19.8585H19.863H19.8675H19.872H19.8764H19.8809H19.8854H19.8899H19.8944H19.8988H19.9033H19.9078H19.9123H19.9168H19.9212H19.9257H19.9302H19.9347H19.9392H19.9437H19.9481H19.9526H19.9571H19.9616H19.9661H19.9705H19.975H19.9795H19.984H19.9885H19.9929H19.9974H20.0019H20.0064H20.0109H20.0153H20.0198H20.0243H20.0288H20.0333H20.0377H20.0422H20.0467H20.0512H20.0557H20.0601H20.0646H20.0691H20.0736H20.0781H20.0825H20.087H20.0915H20.096H20.1005H20.1049H20.1094H20.1139H20.1184H20.1229H20.1273H20.1318H20.1363H20.1408H20.1453H20.1497H20.1542H20.1587H20.1632H20.1677H20.1721H20.1766H20.1811H20.1856H20.1901H20.1945H20.199H20.2035H20.208H20.2124H20.2169H20.2214H20.2259H20.2304H20.2348H20.2393H20.2438H20.2483H20.2528H20.2572H20.2617H20.2662H20.2707H20.2752H20.2796H20.2841H20.2886H20.2931H20.2976H20.302H20.3065H20.311H20.3155H20.32H20.3244H20.3289H20.3334H20.3379H20.3424H20.3468H20.3513H20.3558H20.3603H20.3648H20.3692H20.3737H20.3782H20.3827H20.3872H20.3916H20.3961H20.4006H20.4051H20.4096H20.414H20.4185H20.423H20.4275H20.4319H20.4364H20.4409H20.4454H20.4499H20.4543H20.4588H20.4633H20.4678H20.4723H20.4767H20.4812H20.4857H20.4902H20.4947H20.4991H20.5036H20.5081H20.5126H20.5171H20.5215H20.526H20.5305H20.535H20.5395H20.5439H20.5484H20.5529H20.5574H20.5619H20.5663H20.5708H20.5753H20.5798H20.5843H20.5887H20.5932H20.5977H20.6022H20.6067H20.6111H20.6156H20.6201H20.6246H20.6291H20.6335H20.638H20.6425H20.647H20.6515H20.6559H20.6604H20.6649H20.6694H20.6739H20.6783H20.6828H20.6873H20.6918H20.6962H20.7007H20.7052H20.7097H20.7142H20.7186H20.7231H20.7276H20.7321H20.7366H20.741H20.7455H20.75H20.7545H20.759H20.7634H20.7679H20.7724H20.7769H20.7814H20.7858H20.7903H20.7948H20.7993H20.8038H20.8082H20.8127H20.8172H20.8217H20.8262H20.8306H20.8351H20.8396H20.8441H20.8486H20.853H20.8575H20.862H20.8665H20.871H20.8754H20.8799H20.8844H20.8889H20.8934H20.8978H20.9023H20.9068H20.9113H20.9157H20.9202H20.9247H20.9292H20.9337H20.9381H20.9426H20.9471H20.9516H20.9561H20.9605H20.965H20.9695H20.974H20.9785H20.9829H20.9874H20.9919H20.9964H21.0009H21.0053H21.0098H21.0143H21.0188H21.0233H21.0277H21.0322H21.0367H21.0412H21.0457H21.0501H21.0546H21.0591H21.0636H21.0681H21.0725H21.077H21.0815H21.086H21.0905H21.0949H21.0994H21.1039H21.1084H21.1129H21.1173H21.1218H21.1263H21.1308H21.1353H21.1397H21.1442H21.1487H21.1532H21.1576H21.1621H21.1666H21.1711H21.1756H21.18H21.1845H21.189H21.1935H21.198H21.2024H21.2069H21.2114H21.2159H21.2204H21.2248H21.2293H21.2338H21.2383H21.2428H21.2472H21.2517H21.2562H21.2607H21.2652H21.2696H21.2741H21.2786H21.2831H21.2876H21.292H21.2965H21.301H21.3055H21.31H21.3144H21.3189H21.3234H21.3279H21.3324H21.3368H21.3413H21.3458H21.3503H21.3548H21.3592H21.3637H21.3682H21.3727H21.3772H21.3816H21.3861H21.3906H21.3951H21.3995H21.404H21.4085H21.413H21.4175H21.4219H21.4264H21.4309H21.4354H21.4399H21.4443H21.4488H21.4533H21.4578H21.4623H21.4667H21.4712H21.4757H21.4802H21.4847H21.4891H21.4936H21.4981H21.5026H21.5071H21.5115H21.516H21.5205H21.525H21.5295H21.5339H21.5384H21.5429H21.5474H21.5519H21.5563H21.5608H21.5653H21.5698H21.5743H21.5787H21.5832H21.5877H21.5922H21.5967H21.6011H21.6056H21.6101H21.6146H21.6191H21.6235H21.628H21.6325H21.637H21.6414H21.6459H21.6504H21.6549H21.6594H21.6638H21.6683H21.6728H21.6773H21.6818H21.6862H21.6907H21.6952H21.6997H21.7042H21.7086H21.7131H21.7176H21.7221H21.7266H21.731H21.7355H21.74H21.7445H21.749H21.7534H21.7579H21.7624H21.7669H21.7714H21.7758H21.7803H21.7848H21.7893H21.7938H21.7982H21.8027H21.8072H21.8117H21.8162H21.8206H21.8251H21.8296H21.8341H21.8386H21.843H21.8475H21.852H21.8565H21.861H21.8654H21.8699H21.8744H21.8789H21.8833H21.8878H21.8923H21.8968H21.9013H21.9057H21.9102H21.9147H21.9192H21.9237H21.9281H21.9326H21.9371H21.9416H21.9461H21.9505H21.955H21.9595H21.964H21.9685H21.9729H21.9774H21.9819H21.9864H21.9909H21.9953H21.9998H22.0043H22.0088H22.0133H22.0177H22.0222H22.0267H22.0312H22.0357H22.0401H22.0446H22.0491H22.0536H22.0581H22.0625H22.067H22.0715H22.076H22.0805H22.0849H22.0894H22.0939H22.0984H22.1028H22.1073H22.1118H22.1163H22.1208H22.1252H22.1297H22.1342H22.1387H22.1432H22.1476H22.1521H22.1566H22.1611H22.1656H22.17H22.1745H22.179H22.1835H22.188H22.1924H22.1969H22.2014H22.2059H22.2104H22.2148H22.2193H22.2238H22.2283H22.2328H22.2372H22.2417H22.2462H22.2507H22.2552H22.2596H22.2641H22.2686H22.2731H22.2776H22.282H22.2865H22.291H22.2955H22.3H22.3044H22.3089H22.3134H22.3179H22.3224H22.3268H22.3313H22.3358H22.3403H22.3447H22.3492H22.3537H22.3582H22.3627H22.3671H22.3716H22.3761H22.3806H22.3851H22.3895H22.394H22.3985H22.403H22.4075H22.4119H22.4164H22.4209H22.4254H22.4299H22.4343H22.4388H22.4433H22.4478H22.4523H22.4567H22.4612H22.4657H22.4702H22.4747H22.4791H22.4836H22.4881H22.4926H22.4971H22.5015H22.506H22.5105H22.515H22.5195C22.8954 4.37168 23.2519 4.47531 23.5273 4.70214C23.809 4.93411 23.9682 5.26516 23.9858 5.6349M17.9211 4.37159L23.4864 5.65869M17.9211 4.37159L17.9118 4.37176C17.5404 4.37864 17.1795 4.4686 16.9014 4.69841C16.6096 4.93943 16.4739 5.28028 16.4656 5.64732L16.4655 5.64758C16.4575 6.00768 16.5667 6.36341 16.8325 6.6292C17.097 6.89363 17.4596 7.01238 17.8498 7.01315M17.9211 4.37159L16.9654 5.65869M23.9858 5.6349L23.4864 5.65869M23.9858 5.6349C23.9858 5.63471 23.9858 5.63452 23.9858 5.63432L23.4864 5.65869M23.9858 5.6349C24.0244 6.43344 23.3582 6.99738 22.5744 7.01305L22.5716 7.01311C20.9939 7.03564 19.4274 7.03565 17.8498 7.01315M23.4864 5.65869C23.5088 6.11965 23.1266 6.50191 22.5644 6.51315C20.9904 6.53564 19.4276 6.53564 17.8536 6.51315M17.8498 7.01315C17.8511 7.01315 17.8523 7.01315 17.8536 7.01315V6.51315M17.8498 7.01315C17.8487 7.01313 17.8476 7.01312 17.8465 7.0131L17.8536 6.51315M17.8536 6.51315C17.269 6.51315 16.9542 6.16462 16.9654 5.65869M16.9654 5.65869C16.9767 5.16399 17.314 4.88292 17.9211 4.87168L16.9654 5.65869ZM10.8995 5.6599V5.65869C10.8995 3.94446 11.7449 2.7561 13.2184 2.27793L13.2184 2.27795L13.2222 2.27669C13.5656 2.16223 13.9489 2.11122 14.3346 2.11122L14.336 2.11121C18.2587 2.09997 22.1813 2.09997 26.0928 2.11121C28.1039 2.12135 29.541 3.55471 29.541 5.54626V5.54685C29.5522 14.9231 29.5522 24.2881 29.541 33.6643V33.6649C29.541 35.6599 28.1009 37.1 26.106 37.1L26.1045 37.1C22.2267 37.1112 18.3488 37.1112 14.4709 37.1H14.4695C13.367 37.1 12.4887 36.7397 11.8862 36.1407C11.2838 35.5419 10.9159 34.6637 10.9108 33.5502L10.9108 33.5501C10.8939 30.061 10.896 26.5786 10.8981 23.0916C10.8988 21.9284 10.8995 20.7647 10.8995 19.6C10.8995 18.0517 10.8983 16.5027 10.897 14.9534C10.8945 11.8546 10.892 8.7551 10.8995 5.6599ZM20.2546 34.8282L20.2548 34.8282C21.4074 34.8134 22.332 33.8697 22.3336 32.7123C22.3467 31.501 21.4242 30.579 20.2259 30.579C19.0336 30.579 18.0696 31.5294 18.0845 32.7155C18.0992 33.8926 19.0806 34.8429 20.2546 34.8282Z" stroke="#E60000"/>
</g>
</g>
<defs>
<filter id="filter0_b_184_843" x="-1.60547" y="-10.3972" width="43.6543" height="60.0056" filterUnits="userSpaceOnUse" color-interpolation-filters="sRGB">
<feFlood flood-opacity="0" result="BackgroundImageFix"/>
<feGaussianBlur in="BackgroundImageFix" stdDeviation="6"/>
<feComposite in2="SourceAlpha" operator="in" result="effect1_backgroundBlur_184_843"/>
<feBlend mode="normal" in="SourceGraphic" in2="effect1_backgroundBlur_184_843" result="shape"/>
</filter>
<clipPath id="clip0_184_843">
<rect width="19.6415" height="36" fill="white" transform="translate(10.4004 1.59998)"/>
</clipPath>
</defs>
</svg>
